<?xml version="1.0" encoding="utf-8"?>
<!-- Generator: Adobe Illustrator 24.2.1, SVG Export Plug-In . SVG Version: 6.00 Build 0)  -->
<svg version="1.1" xmlns="http://www.w3.org/2000/svg" xmlns:xlink="http://www.w3.org/1999/xlink" x="0px" y="0px"
	 viewBox="0 0 354.59 45.47" style="enable-background:new 0 0 354.59 45.47;" xml:space="preserve">
<style type="text/css">
	.st0{fill:#FFFFFF;}
	.st1{fill:#2C286D;}
	.st2{fill:#5DBFD4;}
</style>
<g id="Layer_1">
	<path class="st0" d="M351.67,32.28c0,5.62-1.63,7.28-6.11,8.63c-4.85,1.47-13.46,2.38-18.59,2.38c-6.07,0-13.63-0.39-20.07-1.87
		v-6.5h35.59v-8.83H317.3c-7.57,0-10.39-2.08-10.39-9.48v-3.86c0-5.83,1.72-7.59,6.46-8.81c4.76-1.23,12.57-2.03,17.66-2.03
		c6.18,0,13.62,0.48,20.09,1.91v6.5h-35.02v7.47h25.19c7.57,0,10.39,2.04,10.39,9.44V32.28"/>
	<path class="st0" d="M290.98,41.43c-7.38,1.46-14.8,1.86-21.99,1.86s-14.75-0.4-22.13-1.86V3.83c7.38-1.46,14.85-1.91,22.04-1.91
		s14.53,0.45,21.91,1.91v6.71h-33.32v7.51h21.7v7.8h-21.7v8.87h33.5V41.43"/>
	<path class="st0" d="M234.13,41.43c-6.62,1.47-13.29,1.86-19.71,1.86c-6.41,0-13.22-0.39-19.84-1.86V2.85h10.62v31.38h28.93V41.43"
		/>
	<path class="st0" d="M181.85,41.67c-3.54,1.02-8.21,1.38-11.7,1.44L153.8,10.06h-0.91L136.53,43.1c-3.49-0.06-7.59-0.42-11.13-1.44
		l20.71-38.8h14.77L181.85,41.67"/>
	<path class="st1" d="M160.27,31.81c0,3.79-3.13,6.88-6.92,6.88c-3.8,0-6.88-3.08-6.88-6.88c0-3.79,3.08-6.88,6.88-6.88
		C157.14,24.93,160.27,28,160.27,31.81"/>
	<path class="st0" d="M112.6,41.71c-3.39,0.97-7.02,1.33-10.63,1.39V26.25H75.59V43.1c-3.61-0.06-7.23-0.42-10.62-1.39V3.59
		c3.39-0.98,7.01-1.33,10.62-1.4v16.27h26.39V2.19c3.61,0.07,7.23,0.42,10.63,1.4V41.71"/>
	<path class="st0" d="M50.17,10.63H31.53v31.79H21.02V10.63H2.39V3.85c8.02-1.46,16.08-1.91,23.92-1.91
		c7.82,0,15.86,0.46,23.86,1.91V10.63"/>
	<path class="st0" d="M351.67,32.28c0,5.62-1.63,7.28-6.11,8.63c-4.85,1.47-13.46,2.38-18.59,2.38c-6.07,0-13.63-0.39-20.07-1.87
		v-6.5h35.59v-8.83H317.3c-7.57,0-10.39-2.08-10.39-9.48v-3.86c0-5.83,1.72-7.59,6.46-8.81c4.76-1.23,12.57-2.03,17.66-2.03
		c6.18,0,13.62,0.48,20.09,1.91v6.5h-35.02v7.47h25.19c7.57,0,10.39,2.04,10.39,9.44V32.28"/>
	<path class="st0" d="M290.98,41.43c-7.38,1.46-14.8,1.86-21.99,1.86s-14.75-0.4-22.13-1.86V3.83c7.38-1.46,14.85-1.91,22.04-1.91
		s14.53,0.45,21.91,1.91v6.71h-33.32v7.51h21.7v7.8h-21.7v8.87h33.5V41.43"/>
	<path class="st0" d="M234.13,41.43c-6.62,1.47-13.29,1.86-19.71,1.86c-6.41,0-13.22-0.39-19.84-1.86V2.85h10.62v31.38h28.93V41.43"
		/>
	<path class="st0" d="M181.85,41.67c-3.54,1.02-8.21,1.38-11.7,1.44L153.8,10.06h-0.91L136.53,43.1c-3.49-0.06-7.59-0.42-11.13-1.44
		l20.71-38.8h14.77L181.85,41.67"/>
	<path class="st2" d="M160.27,31.81c0,3.79-3.13,6.88-6.92,6.88c-3.8,0-6.88-3.08-6.88-6.88c0-3.79,3.08-6.88,6.88-6.88
		C157.14,24.93,160.27,28,160.27,31.81"/>
	<path class="st0" d="M112.6,41.71c-3.39,0.97-7.02,1.33-10.63,1.39V26.25H75.59V43.1c-3.61-0.06-7.23-0.42-10.62-1.39V3.59
		c3.39-0.98,7.01-1.33,10.62-1.4v16.27h26.39V2.19c3.61,0.07,7.23,0.42,10.63,1.4V41.71"/>
	<path class="st0" d="M50.17,10.63H31.53v31.79H21.02V10.63H2.39V3.85c8.02-1.46,16.08-1.91,23.92-1.91
		c7.82,0,15.86,0.46,23.86,1.91V10.63"/>
</g>
<g id="Layer_2">
	<g>
	</g>
	<g>
	</g>
	<g>
	</g>
	<g>
	</g>
	<g>
	</g>
	<g>
	</g>
</g>
</svg>
